<?xml version="1.0" standalone="no"?>
<!DOCTYPE svg PUBLIC "-//W3C//DTD SVG 20010904//EN"
 "http://www.w3.org/TR/2001/REC-SVG-20010904/DTD/svg10.dtd">
<svg version="1.0" xmlns="http://www.w3.org/2000/svg"
 width="512.000000pt" height="512.000000pt" viewBox="0 0 512.000000 512.000000"
 preserveAspectRatio="xMidYMid meet">

<g transform="translate(0.000000,512.000000) scale(0.100000,-0.100000)"
fill="#000000" stroke="none">
<path d="M0 2560 l0 -2560 2560 0 2560 0 0 2560 0 2560 -2560 0 -2560 0 0
-2560z m2740 2420 c510 -36 925 -195 1344 -513 371 -283 663 -720 800 -1202
99 -344 128 -714 81 -1031 -45 -299 -114 -530 -235 -779 -103 -212 -215 -376
-404 -588 -154 -173 -479 -402 -736 -517 -318 -144 -650 -213 -1025 -213 -221
0 -319 9 -538 53 -633 128 -1205 531 -1540 1086 -141 234 -241 499 -302 798
-73 361 -73 610 0 971 55 267 99 400 205 620 154 317 383 601 645 801 321 245
592 375 940 453 281 63 493 80 765 61z"/>
<path d="M1608 4049 c-33 -15 -50 -29 -57 -49 -13 -39 -43 -52 -104 -48 l-52
3 -5 -46 c-6 -48 -23 -79 -44 -79 -19 0 -61 -50 -90 -105 -59 -115 -76 -140
-76 -118 0 27 -45 45 -78 30 -12 -6 -26 -7 -30 -3 -4 4 -7 54 -7 109 0 98 -1
102 -22 105 -21 3 -68 -23 -101 -55 -18 -17 -29 -16 -36 2 -8 22 -74 19 -114
-5 -34 -21 -122 -147 -122 -175 0 -22 -18 -55 -44 -82 -47 -47 -154 -340 -191
-523 -23 -112 -17 -402 9 -465 21 -49 44 -75 66 -75 21 0 33 -46 18 -73 -12
-24 -3 -34 17 -17 8 7 21 10 29 7 23 -9 54 -107 64 -203 8 -66 15 -91 29 -101
39 -29 53 -43 53 -58 0 -21 -13 -19 -35 5 -26 28 -42 25 -49 -11 -15 -79 9
-173 47 -183 34 -8 47 12 47 71 0 39 4 55 15 60 15 5 55 -22 55 -38 0 -24 102
-113 189 -164 55 -32 66 -51 62 -105 -2 -41 19 -76 41 -67 14 5 14 12 2 58 -8
30 -14 67 -14 83 l0 30 20 -20 c12 -12 25 -45 31 -82 7 -39 16 -62 24 -62 29
0 65 20 65 36 0 11 6 15 20 11 25 -6 50 17 50 47 0 32 18 47 40 34 29 -19 53
-3 45 31 -3 17 -2 32 4 36 6 3 11 23 11 43 0 20 4 43 9 51 5 7 4 25 -2 42 -6
15 -8 31 -4 35 11 11 107 -95 100 -112 -3 -8 0 -21 7 -29 7 -8 9 -15 4 -15 -5
0 2 -9 16 -20 20 -16 23 -22 14 -37 -6 -10 -24 -20 -40 -21 -56 -7 -94 -62
-95 -142 -1 -31 4 -58 14 -72 98 -140 93 -134 150 -157 15 -6 32 -22 37 -36
10 -25 43 -34 55 -15 8 13 58 13 72 -1 5 -5 34 -13 64 -16 l54 -5 -3 56 c-3
36 2 66 12 87 12 23 13 36 5 51 -6 11 -9 21 -7 24 6 5 37 8 71 6 25 -2 27 -5
27 -50 0 -27 -6 -57 -15 -68 -8 -10 -15 -26 -15 -35 0 -21 62 -79 86 -79 31 0
57 24 57 53 0 40 21 53 45 27 13 -14 27 -20 39 -16 36 11 73 106 41 106 -6 0
-38 -5 -70 -12 -45 -9 -61 -9 -70 0 -9 9 -4 20 21 46 19 19 43 36 55 38 17 2
20 9 18 33 -5 46 -34 88 -75 108 -20 10 -37 25 -37 33 0 25 20 15 68 -32 56
-55 140 -114 163 -114 25 0 89 29 89 40 0 6 7 10 15 10 8 0 24 9 35 20 26 26
33 25 26 -3 -4 -18 0 -27 19 -37 35 -19 59 -6 51 28 -12 52 -11 57 21 73 18 9
39 22 47 28 8 7 25 9 40 5 26 -6 26 -5 25 47 0 30 -6 70 -12 89 -11 31 -16 35
-44 33 -31 -3 -32 -3 -31 45 0 26 -3 64 -7 85 -5 28 -2 50 13 85 23 52 30 113
18 150 -8 25 -23 27 -50 7 -29 -22 -44 -19 -77 14 -26 26 -29 35 -23 69 5 33
2 43 -17 61 -12 11 -33 21 -45 21 -16 0 -32 14 -51 43 -16 23 -45 51 -66 62
-20 11 -42 33 -48 48 -8 20 -17 26 -28 22 -27 -11 -33 -10 -38 2 -7 20 31 23
91 8 69 -18 76 -13 101 68 8 27 28 64 44 82 16 18 31 39 33 46 3 9 11 10 36 1
45 -16 70 11 62 68 -1 8 -19 33 -40 55 -26 27 -43 56 -51 88 -11 45 -10 51 12
80 12 18 31 38 41 45 21 15 25 79 6 105 -15 20 -71 27 -110 14 -24 -8 -39 -29
-44 -62 -1 -5 -2 -13 -3 -17 0 -4 -24 1 -52 13 -54 21 -70 21 -44 -1 22 -18
19 -27 -16 -39 -34 -12 -35 -34 -1 -39 25 -4 27 -19 11 -56 -9 -19 -9 -29 0
-39 17 -21 4 -44 -45 -77 -53 -37 -62 -37 -66 -2 -2 20 -8 27 -23 25 -11 -1
-24 -9 -30 -19 -5 -10 -24 -34 -42 -54 -30 -34 -31 -38 -16 -53 28 -27 7 -31
-42 -7 -54 26 -64 21 -72 -40 -5 -37 -3 -45 22 -66 16 -13 41 -24 57 -24 32 0
33 2 16 30 -7 10 -8 23 -4 27 5 4 10 4 12 -2 6 -14 32 -54 130 -194 17 -23 18
-23 31 -5 12 16 15 17 23 4 6 -9 6 -16 0 -18 -6 -2 -6 -11 0 -23 6 -10 8 -30
4 -44 -4 -17 -1 -32 8 -43 9 -9 18 -36 22 -59 4 -28 17 -54 41 -80 49 -53 61
-102 36 -144 l-19 -31 -25 38 c-13 22 -32 45 -41 53 -9 7 -16 22 -16 32 0 13
-12 21 -42 30 -47 12 -105 68 -115 109 -3 14 -10 30 -15 37 -6 7 -5 20 2 34
25 46 15 86 -31 129 -42 38 -84 59 -96 47 -3 -3 -1 -20 5 -36 10 -29 9 -31
-12 -31 -13 0 -35 11 -50 25 -22 21 -26 31 -21 55 5 23 3 30 -9 30 -8 0 -17
-9 -21 -19 -16 -53 -58 -47 -70 9 -5 21 -14 30 -33 34 -117 22 -145 30 -132
34 8 2 23 14 32 26 15 19 20 20 39 7 20 -12 24 -11 36 5 22 30 16 61 -14 73
-66 28 -97 50 -124 90 -20 31 -27 51 -23 68 4 15 0 30 -11 43 -15 16 -15 23
-4 54 10 28 20 36 53 45 29 8 47 21 61 44 26 41 66 47 108 17 26 -20 33 -21
69 -11 21 7 42 19 45 27 3 8 19 14 38 14 39 0 52 14 57 60 3 34 1 36 -51 56
-41 15 -55 26 -56 42 -2 30 -34 62 -62 62 -26 0 -27 3 -13 31 14 25 24 24 40
-6 17 -32 64 -49 81 -29 17 21 12 92 -11 166 -20 64 -19 78 5 78 24 0 45 -42
45 -90 0 -61 16 -115 45 -147 30 -35 46 -23 47 36 0 33 -6 49 -26 70 -27 29
-32 54 -17 94 7 17 5 33 -5 52 -20 39 -18 47 17 78 37 33 33 52 -11 52 -34 0
-35 1 -69 75 -32 70 -127 160 -167 160 -10 -1 -40 -10 -66 -21z m239 -255 c8
-20 -8 -36 -26 -25 -15 10 -8 41 9 41 6 0 13 -7 17 -16z m-427 -94 c0 -14 -34
-84 -45 -92 -30 -21 -29 32 2 78 15 24 43 33 43 14z m184 -136 c23 -9 19 -21
-9 -28 -18 -5 -25 -13 -25 -31 0 -31 -16 -33 -23 -3 -4 14 -1 26 8 31 8 4 15
15 15 22 0 16 9 18 34 9z m-120 -226 c17 -24 21 -58 8 -58 -17 0 -52 32 -52
49 0 36 22 41 44 9z m271 2 c0 -22 -39 -19 -43 3 -3 15 1 18 20 15 12 -2 23
-10 23 -18z m-665 -30 c0 -5 -5 -10 -11 -10 -5 0 -7 5 -4 10 3 6 8 10 11 10 2
0 4 -4 4 -10z m-119 -19 c20 -16 22 -23 13 -38 -8 -13 -8 -25 -1 -41 9 -19 7
-27 -14 -47 -13 -13 -37 -27 -53 -31 -28 -7 -28 -6 -23 27 3 19 8 54 12 79 12
79 22 87 66 51z m679 -15 c0 -11 -19 -15 -25 -6 -3 5 1 10 9 10 9 0 16 -2 16
-4z m-200 -31 c0 -8 -4 -15 -10 -15 -5 0 -10 7 -10 15 0 8 5 15 10 15 6 0 10
-7 10 -15z m-212 -290 c-3 -3 -9 2 -12 12 -6 14 -5 15 5 6 7 -7 10 -15 7 -18z
m127 -197 c15 -30 17 -41 8 -60 -13 -25 -19 -54 -29 -133 -7 -55 -14 -72 -14
-33 0 30 -69 98 -99 98 -42 0 -49 48 -25 168 8 38 10 38 49 12 17 -11 38 -20
48 -20 16 0 16 2 2 30 -9 17 -13 35 -9 41 6 10 20 -11 69 -103z m805 43 c0
-11 5 -23 10 -26 6 -3 10 -10 10 -16 0 -5 -4 -9 -10 -9 -5 0 -10 6 -10 14 0 7
-7 19 -15 26 -8 7 -15 16 -15 21 0 5 7 9 15 9 8 0 15 -9 15 -19z m-250 -21 c0
-5 -5 -10 -11 -10 -5 0 -7 5 -4 10 3 6 8 10 11 10 2 0 4 -4 4 -10z m-230 -254
c0 -11 -19 -15 -25 -6 -3 5 1 10 9 10 9 0 16 -2 16 -4z m258 -119 c4 -34 -11
-35 -26 -2 -16 34 -15 37 6 33 10 -2 18 -14 20 -31z m-213 -234 c-7 -39 -21
-42 -36 -9 -6 13 -22 29 -36 35 -38 18 -27 51 27 79 l45 22 3 -47 c2 -26 1
-63 -3 -80z m731 19 c17 -11 -2 -53 -21 -46 -15 6 -21 35 -8 47 8 9 15 9 29
-1z m79 -12 c7 -12 -12 -40 -26 -40 -5 0 -9 11 -9 25 0 25 23 35 35 15z m-405
-59 c0 -5 -7 -12 -16 -15 -24 -9 -28 -7 -14 9 14 17 30 20 30 6z m-176 -68
c16 -55 17 -112 3 -139 -12 -23 -25 -98 -27 -147 0 -5 -10 -7 -22 -5 -14 2
-24 12 -28 28 -4 18 -14 26 -35 30 l-30 5 33 14 c43 18 48 28 24 54 -28 32
-35 67 -12 67 21 0 35 29 21 43 -7 7 -1 20 17 38 31 33 48 37 56 12z m-364
-179 c0 -8 -4 -12 -10 -9 -5 3 -10 10 -10 16 0 5 5 9 10 9 6 0 10 -7 10 -16z
m477 -20 c27 -7 36 -29 23 -55 -14 -25 -23 -24 -57 5 -24 20 -25 26 -14 40 15
18 17 18 48 10z m-256 -76 c22 -25 23 -31 7 -60 -26 -46 -37 -52 -58 -33 -10
9 -24 30 -31 47 -11 28 -10 32 12 49 31 24 48 24 70 -3z m153 -190 c17 -23 21
-58 9 -58 -5 0 -21 11 -37 23 -20 16 -27 29 -23 40 9 24 33 21 51 -5z m-176
-225 c2 -8 -5 -13 -17 -13 -12 0 -21 6 -21 16 0 18 31 15 38 -3z"/>
<path d="M1095 4000 c-3 -5 1 -10 9 -10 9 0 16 5 16 10 0 6 -4 10 -9 10 -6 0
-13 -4 -16 -10z"/>
<path d="M2060 3894 c0 -4 10 -22 21 -41 20 -32 23 -33 38 -18 15 15 14 18
-14 41 -30 24 -45 30 -45 18z"/>
<path d="M2022 3770 c-17 -56 -16 -60 17 -60 32 0 41 14 41 66 0 29 -4 34 -23
34 -17 0 -25 -9 -35 -40z"/>
<path d="M2700 3690 c0 -23 25 -60 41 -60 10 0 25 -7 33 -16 16 -15 41 -10 31
6 -3 5 3 13 12 19 10 6 15 11 12 11 -3 0 -33 11 -67 24 -34 14 -62 21 -62 16z"/>
<path d="M2906 3611 c6 -7 24 -14 40 -16 33 -6 16 8 -26 20 -19 5 -22 4 -14
-4z"/>
<path d="M2084 3529 c-14 -28 -14 -33 -1 -47 13 -13 20 -13 46 -2 33 13 38 29
21 61 -16 29 -47 23 -66 -12z"/>
<path d="M2185 3464 c-14 -31 -25 -63 -25 -70 0 -23 28 -16 47 12 10 15 29 37
43 51 19 19 22 28 14 41 -6 9 -21 18 -32 20 -18 3 -26 -7 -47 -54z"/>
<path d="M3250 3481 c0 -11 -18 -35 -56 -73 l-21 -22 23 -50 c13 -28 24 -60
24 -71 0 -21 35 -85 53 -97 14 -8 37 9 37 28 0 7 10 20 21 28 19 13 25 13 50
0 43 -22 33 -74 -13 -74 -10 0 -24 -12 -30 -26 -11 -24 -9 -29 19 -55 32 -28
98 -53 115 -43 4 3 8 20 8 38 0 30 14 56 31 56 4 0 16 -16 28 -35 42 -72 84
-34 115 107 4 19 21 36 54 55 80 46 80 45 -41 91 -74 27 -114 38 -118 30 -4
-5 -24 -12 -46 -15 -45 -5 -90 23 -95 59 -2 16 -18 28 -63 45 -86 33 -95 36
-95 24z m220 -209 c0 -24 -28 -62 -46 -62 -17 0 -19 51 -4 81 9 15 15 17 30 9
11 -6 20 -19 20 -28z m200 -18 c0 -8 -7 -14 -15 -14 -15 0 -21 21 -9 33 10 9
24 -2 24 -19z"/>
<path d="M2674 3402 c-7 -4 -17 -26 -23 -49 -8 -31 -21 -47 -49 -65 -20 -12
-44 -24 -52 -24 -8 -1 -21 -2 -27 -3 -18 -1 -16 -28 1 -34 8 -3 23 -3 34 0 11
2 32 -3 46 -12 19 -13 52 -18 117 -21 81 -2 92 0 116 20 l27 24 -37 53 c-55
80 -124 130 -153 111z"/>
<path d="M1920 3300 c0 -5 5 -10 10 -10 6 0 10 5 10 10 0 6 -4 10 -10 10 -5 0
-10 -4 -10 -10z"/>
<path d="M2150 3220 c8 -5 20 -10 25 -10 6 0 3 5 -5 10 -8 5 -19 10 -25 10 -5
0 -3 -5 5 -10z"/>
<path d="M3887 3185 c-26 -36 -5 -59 32 -36 9 6 11 18 7 35 -8 32 -16 32 -39
1z"/>
<path d="M4203 3111 c-1 -11 5 -22 13 -25 19 -7 18 -36 -2 -64 -18 -26 -8 -46
27 -57 14 -5 19 -14 17 -35 -1 -15 4 -35 11 -44 17 -20 5 -56 -20 -56 -21 0
-27 -34 -8 -46 21 -13 98 -14 106 -1 4 7 8 66 8 132 1 66 4 129 8 140 6 18 -2
24 -66 48 -88 32 -92 33 -94 8z"/>
<path d="M3600 3000 c0 -5 7 -10 15 -10 8 0 15 5 15 10 0 6 -7 10 -15 10 -8 0
-15 -4 -15 -10z"/>
<path d="M2536 2872 c-12 -12 -5 -89 10 -110 23 -34 68 -30 84 7 10 25 9 36
-5 68 -15 34 -22 39 -50 40 -19 1 -36 -2 -39 -5z"/>
<path d="M3890 2545 c-20 -53 -7 -81 59 -127 28 -20 22 -48 -10 -48 -26 0 -21
-18 14 -44 25 -19 28 -19 46 -2 10 9 22 16 27 15 25 -4 34 4 34 31 0 61 -33
100 -70 80 -13 -7 -21 -7 -25 1 -4 5 -18 14 -31 19 -27 11 -32 35 -8 44 21 8
14 50 -8 54 -12 2 -21 -6 -28 -23z"/>
<path d="M4342 2377 c12 -23 24 -44 25 -46 5 -8 31 20 36 38 3 14 -6 21 -40
34 l-44 16 23 -42z"/>
<path d="M4711 2284 c0 -11 3 -14 6 -6 3 7 2 16 -1 19 -3 4 -6 -2 -5 -13z"/>
<path d="M4686 2201 c-13 -41 -16 -63 -9 -76 8 -14 13 -4 23 48 16 87 10 101
-14 28z"/>
<path d="M4644 2054 c-10 -15 -20 -57 -24 -97 -6 -73 -28 -128 -61 -156 -19
-17 -54 -91 -43 -91 8 0 -42 -49 -72 -70 -11 -8 -33 -51 -49 -95 -16 -44 -33
-81 -37 -83 -4 -2 -8 -10 -8 -17 0 -7 -7 -15 -15 -19 -8 -3 -15 -10 -15 -16 0
-6 -13 -25 -30 -43 -16 -18 -30 -35 -30 -39 0 -4 -13 -14 -29 -23 -39 -20 -68
-62 -82 -121 -7 -27 -18 -64 -26 -82 -17 -40 -70 -102 -87 -102 -7 0 -18 -10
-23 -23 -21 -46 -217 -193 -433 -325 -19 -12 -30 -22 -24 -22 20 0 215 121
316 198 356 268 611 622 747 1037 27 83 52 165 56 183 8 39 -8 43 -31 6z"/>
<path d="M539 2034 c-9 -11 -9 -21 -1 -39 17 -38 42 -32 42 9 0 38 -21 53 -41
30z"/>
<path d="M1440 1790 c0 -5 9 -10 20 -10 11 0 20 5 20 10 0 6 -9 10 -20 10 -11
0 -20 -4 -20 -10z"/>
<path d="M850 1666 c0 -14 5 -28 10 -31 19 -11 10 -25 -16 -25 -22 0 -24 -3
-18 -22 12 -39 45 -79 63 -76 13 3 15 15 13 66 -2 35 -7 74 -12 88 -12 32 -40
32 -40 0z"/>
<path d="M620 1616 c0 -15 18 -31 26 -23 7 7 -7 37 -17 37 -5 0 -9 -6 -9 -14z"/>
<path d="M1185 1551 c-6 -11 9 -23 19 -14 9 9 7 23 -3 23 -6 0 -12 -4 -16 -9z"/>
<path d="M1370 1426 c0 -2 7 -6 15 -10 8 -3 15 -1 15 4 0 6 -7 10 -15 10 -8 0
-15 -2 -15 -4z"/>
<path d="M2095 1290 c3 -5 11 -10 16 -10 6 0 7 5 4 10 -3 6 -11 10 -16 10 -6
0 -7 -4 -4 -10z"/>
<path d="M1654 1224 c4 -11 10 -32 13 -47 6 -29 32 -47 104 -72 34 -12 41 -12
54 1 19 19 19 17 -5 61 -17 32 -24 37 -49 35 -16 -2 -40 3 -53 11 -13 8 -34
18 -47 22 -21 6 -23 5 -17 -11z"/>
<path d="M1945 1210 c3 -5 8 -10 11 -10 2 0 4 5 4 10 0 6 -5 10 -11 10 -5 0
-7 -4 -4 -10z"/>
<path d="M1105 1200 c-3 -5 1 -10 9 -10 9 0 16 5 16 10 0 6 -4 10 -9 10 -6 0
-13 -4 -16 -10z"/>
<path d="M1382 1113 c5 -26 38 -29 38 -4 0 15 -6 21 -21 21 -14 0 -19 -5 -17
-17z"/>
<path d="M1687 1103 c-13 -13 -7 -32 8 -27 8 4 15 12 15 20 0 15 -12 19 -23 7z"/>
<path d="M1166 1065 c16 -24 34 -34 34 -17 -1 13 -27 42 -39 42 -7 0 -6 -9 5
-25z"/>
<path d="M1616 1041 c-15 -16 -15 -20 -1 -31 19 -16 45 -6 45 19 0 26 -25 33
-44 12z"/>
<path d="M1289 1019 c-16 -10 7 -49 29 -49 10 0 26 -6 37 -14 28 -20 96 -37
111 -28 21 12 -90 92 -132 96 -18 1 -39 -1 -45 -5z"/>
<path d="M1550 1016 c0 -8 7 -16 14 -19 8 -3 22 -29 30 -56 21 -71 53 -102
110 -108 l46 -6 0 34 c-1 48 -23 72 -83 89 -36 11 -56 23 -64 40 -14 28 -53
47 -53 26z"/>
<path d="M1872 982 c-10 -3 -10 -8 1 -25 14 -22 23 -56 34 -130 9 -66 74 -88
126 -42 15 13 27 28 27 34 0 5 -18 24 -40 41 -22 18 -54 51 -70 75 -29 42 -52
56 -78 47z"/>
<path d="M1170 970 c0 -5 7 -10 16 -10 8 0 12 5 9 10 -3 6 -10 10 -16 10 -5 0
-9 -4 -9 -10z"/>
<path d="M1780 864 c0 -18 24 -44 40 -44 22 0 26 20 8 38 -12 12 -48 17 -48 6z"/>
<path d="M1235 843 c22 -22 165 -123 201 -143 22 -11 64 -36 94 -53 103 -61
364 -167 411 -167 5 0 4 9 -3 20 -7 11 -17 20 -22 20 -10 0 -141 59 -303 137
-64 30 -100 42 -116 38 -18 -5 -28 0 -41 19 -9 14 -23 26 -32 26 -8 0 -42 18
-76 40 -63 43 -130 79 -113 63z"/>
<path d="M1547 803 c-14 -13 -6 -33 13 -33 11 0 20 4 20 9 0 13 -26 32 -33 24z"/>
<path d="M2056 774 c-10 -40 2 -84 24 -84 9 0 34 -7 53 -15 35 -14 67 -12 67
5 0 5 3 15 6 23 3 10 -15 28 -57 56 -33 22 -67 41 -74 41 -7 0 -16 -12 -19
-26z"/>
<path d="M1635 770 c-10 -16 4 -30 31 -30 26 0 31 9 12 28 -15 15 -35 16 -43
2z"/>
<path d="M1734 716 c-7 -19 13 -56 31 -56 8 0 15 5 15 10 0 6 9 10 20 10 22 0
26 -10 10 -26 -15 -15 4 -34 42 -40 27 -5 36 -2 42 11 7 19 -9 45 -29 45 -7 0
-18 14 -24 30 -9 27 -14 30 -56 30 -30 0 -47 -5 -51 -14z"/>
<path d="M1936 611 c-3 -5 1 -11 9 -15 15 -6 29 7 18 18 -9 9 -21 8 -27 -3z"/>
<path d="M2050 450 c34 -11 60 -11 35 0 -11 5 -29 8 -40 8 -16 0 -15 -2 5 -8z"/>
<path d="M2418 393 c6 -2 18 -2 25 0 6 3 1 5 -13 5 -14 0 -19 -2 -12 -5z"/>
</g>
</svg>
